# xmcd
#
# Track frame offsets:
#   150
#   15763
#   32775
#   50511
#   65257
#   83382
#   96957
#   117137
#   133151
#   148962
#   166189
#   180683
#   197023
#   212131
#   229081
#   243123
#   259984
#   277323
#   300348
#   316834
#
# Disc length: 4447 seconds
#
# Revision: 0
# Processed by: cddbd v1.5.1PL2 Copyright (c) Steve Scherf et al.
# Submitted via: uFREEDB ActiveX Control 1.5
#
DISCID=11115d14
DTITLE=Tchê Garotos - Só Vanera
DYEAR=2005
DGENRE=Gaucha
TTITLE0=Ajoelha E Chora
TTITLE1=Nossa Pegada
TTITLE2=Chacoiando As Mondonguêra
TTITLE3=Não Sou Perfeito
TTITLE4=Bem Gauchão
TTITLE5=Embalo Da Festança
TTITLE6=Melô Do Ex Marido
TTITLE7=Tio Laerte No Bailão
TTITLE8=O Som Do Povo
TTITLE9=Homem É Tudo Igual
TTITLE10=É No Batuque Que Eu Vou
TTITLE11=Eu Só Quero Uma Vanera
TTITLE12=Pecado e paixão
TTITLE13=O Arrastão
TTITLE14=É Na Palma Da Mão
TTITLE15=O Relógio Da Matriz
TTITLE16=Gana De Farra
TTITLE17=Brasileira (Ao Vivo)
TTITLE18=A Vida Que O "Véio" Mandô
TTITLE19=Andei, Sonhei
EXTD=
EXTT0=
EXTT1=
EXTT2=
EXTT3=
EXTT4=
EXTT5=
EXTT6=
EXTT7=
EXTT8=
EXTT9=
EXTT10=
EXTT11=
EXTT12=
EXTT13=
EXTT14=
EXTT15=
EXTT16=
EXTT17=
EXTT18=
EXTT19=
PLAYORDER=
